<svg width="816" height="678" viewBox="0 0 816 678" fill="none" xmlns="http://www.w3.org/2000/svg">
<ellipse cx="446.24" cy="248.84" rx="324.912" ry="229.907" fill="#3E3737" fill-opacity="0.45"/>
<g filter="url(#filter0_d_225_3)">
<path d="M439.305 580.268C445.618 580.156 452.735 577.934 461.159 574.272C468.891 570.911 477.755 576.281 477.755 584.712C477.755 590.958 482.819 596.022 489.066 596.022L512.01 596.022C518.442 596.022 524.371 592.544 527.509 586.93C534.512 574.403 551.297 582.039 565.646 581.821C572.241 581.721 578.516 573.447 585.465 557.805C591.033 545.272 605.424 536.283 610.829 548.888C616.144 561.283 616.173 580.358 616.695 592.275C616.804 594.774 617.157 597.284 617.776 599.707C624.124 624.536 630.273 608.041 660.15 601.661C674.948 598.835 684.187 599.835 691.161 606.58C701.979 617.043 711.568 629.978 726.562 631.275C731.058 631.664 735.568 631.878 739.978 631.901C766.02 632.042 822.963 618.475 809.588 640.82C801.358 654.57 785.034 669.096 769.008 669.096H198.698C198.585 669.096 198.591 669.096 198.478 669.097C194.824 669.122 -6.84744 670.487 4.4581 669.096C4.95549 653.032 13.8818 606.875 57.0901 631.492C74.6936 617.526 90.5513 602.073 95.8584 589.643C108.727 559.504 252.215 607.868 285.814 596.022C304.863 589.306 309.945 579.669 316.457 571.486C327.586 557.5 345.434 567.173 349.126 584.661C352.266 599.529 355.927 614.816 364.155 616.467C377.475 618.481 388.683 603.482 398.793 588.769C407.359 576.304 424.183 580.535 439.305 580.268Z" fill="#373636"/>
</g>
<path d="M428.56 554.593L430.096 531.974C431.127 516.793 443.743 505.006 458.959 505.006C474.049 505.006 486.605 516.606 487.797 531.65L489.971 559.082C490.269 562.84 490.976 566.583 492.187 570.153C504.516 606.514 514.989 606.986 530.819 573.804C539.206 556.224 561.49 535.236 573.217 550.789C575.11 553.3 576.246 556.584 576.876 560.767C577.271 563.391 577.604 566.051 578.278 568.617C585.341 595.534 595.5 603.453 627.236 597.081C646.835 593.562 657.26 595.981 665.285 608.046C671.147 616.86 679.734 627.628 690.319 627.732C711.015 627.936 727.569 606.015 746.408 614.585C757.831 619.781 764.828 625.728 768.319 633.17C777.634 653.025 751.912 669.209 729.98 669.209H164.597C145.976 669.209 129.393 657.429 123.262 639.846C122.127 636.592 121.365 633.235 121.346 629.789C121.324 625.919 121.544 620.132 122.611 613.336C127.372 583.012 162.767 591.615 192.347 599.817C194.788 600.493 197.354 601.075 200.067 601.574C210.26 603.449 220.569 600.441 229.905 595.939C252.482 585.053 268.87 582.554 282.489 562.708C298.778 538.971 298.55 576.218 314.157 579.162C340.187 582.862 368.407 603.93 394.676 602.829C403.755 602.448 412.838 592.276 423.113 573.737C426.366 567.868 428.105 561.287 428.56 554.593Z" fill="#484646"/>
<g filter="url(#filter1_d_225_3)">
<path d="M396.799 230.188C396.799 182.074 335.399 193.16 340.845 230.188C330.955 226.898 282.445 278.485 336.361 277.912C390.278 277.339 409.751 277.912 425.751 277.912C441.75 277.912 456.652 246.063 418.44 243.629C414.14 233.685 409.381 230.772 396.799 230.188Z" fill="#575757"/>
</g>
<path d="M476 111.374C480.3 79.1106 485.822 63.7223 500.322 40.3131C502.361 38.4943 505.006 38.6316 506.289 40.3131C521.408 60.5864 525.498 76.0797 531 111.374V381H476V111.374Z" fill="#151515" fill-opacity="0.29"/>
<path d="M408.26 101.312C415.732 56.1486 425.328 34.6074 450.522 1.83819C454.066 -0.707853 458.661 -0.515732 460.891 1.83819C487.161 30.2176 494.269 51.9058 503.829 101.312V478.747H408.26V101.312Z" fill="#1D1A1B"/>
<path d="M353 200.692C355.651 168.706 353.668 153.45 362.607 130.242C363.689 125.903 376.231 125.936 377.188 130.242C386.508 150.341 384.608 165.701 388 200.692V468H354.092L353 200.692Z" fill="#FFDE40"/>
<path d="M524 200.692C526.651 168.706 524.668 153.45 533.607 130.242C534.689 125.903 547.231 125.936 548.188 130.242C557.508 150.341 555.608 165.701 559 200.692V468H525.092L524 200.692Z" fill="#FFDE40"/>
<path d="M429.747 202.672C433.734 190.998 441.25 171.869 451.381 158.852C452.561 157.337 454.095 155.987 456.015 155.976C457.967 155.965 459.659 157.358 460.92 158.848C473.269 173.441 479.052 184.827 483.882 204.87C485.168 210.206 485.685 215.7 485.685 221.189V454.478C485.685 454.835 485.395 455.125 485.038 455.125C484.81 455.125 484.594 454.996 484.475 454.802C469.462 430.315 434.709 452.993 426.517 455.125V223.707C426.517 216.557 427.436 209.438 429.747 202.672Z" fill="#548CA8"/>
<path d="M409.951 334.83C417.898 303.325 420.422 286.63 426.517 256.053V454.968C433.617 442.12 446.29 428.106 447.479 427.356C448.669 426.606 451.875 422.848 460.44 425.102C468.36 427.186 483.664 450.892 485.512 454.685C485.568 454.511 485.637 454.326 485.685 454.179V255.94L501.913 334.83C505.459 353.503 508.713 363.7 516.902 381.375C528.066 399.038 543.564 414.425 576.182 444.825C580.141 453.113 581.862 458.627 584.071 469.957C583.163 475.759 581.504 478.387 576.182 481.79L494.25 489.454V517.516H418.29V489.454L336.358 481.226C331.22 478.644 329.932 475.911 328.694 470.182C330.384 460.327 332.093 454.98 336.358 445.726C373.699 409.079 387.849 394.091 395.976 381.375C403.632 363.529 406.654 353.332 409.951 334.83Z" fill="#336D89"/>
<path d="M442.521 216.157C442.521 212.672 445.346 209.846 448.832 209.846H463.483C466.968 209.846 469.794 212.672 469.794 216.157V216.157C469.794 219.643 466.968 222.469 463.483 222.469H448.832C445.346 222.469 442.521 219.643 442.521 216.157V216.157Z" fill="#C4C4C4"/>
<rect x="441.844" y="51.3909" width="27.9495" height="77.7626" rx="13.9747" fill="#595757"/>
<path d="M388.2 237.5H408.26V278.748H388.2V237.5Z" fill="#231D1D"/>
<rect x="503.829" y="198.126" width="20.0605" height="41.248" fill="#231D1D"/>
<path d="M353 238L388 238V279H353V238Z" fill="#E6BC50"/>
<path d="M524.199 238H559V279H524L524.199 238Z" fill="#E6BC50"/>
<g filter="url(#filter2_d_225_3)">
<path d="M754.958 174.74C754.958 126.626 693.558 137.712 699.004 174.74C689.113 171.45 640.603 223.037 694.52 222.464C748.437 221.891 767.91 222.464 783.909 222.464C799.908 222.464 814.81 190.615 776.598 188.18C772.299 178.237 767.54 175.324 754.958 174.74Z" fill="#575757"/>
</g>
<g filter="url(#filter3_d_225_3)">
<path d="M141.197 320.573C141.197 272.459 79.7968 283.545 85.2432 320.573C75.3523 317.283 26.8423 368.87 80.7591 368.297C134.676 367.724 154.149 368.297 170.148 368.297C186.147 368.297 201.049 336.448 162.837 334.013C158.538 324.07 153.779 321.157 141.197 320.573Z" fill="#575757"/>
</g>
<defs>
<filter id="filter0_d_225_3" x="0" y="542.81" width="815.594" height="134.91" filterUnits="userSpaceOnUse" color-interpolation-filters="sRGB">
<feFlood flood-opacity="0" result="BackgroundImageFix"/>
<feColorMatrix in="SourceAlpha" type="matrix" values="0 0 0 0 0 0 0 0 0 0 0 0 0 0 0 0 0 0 127 0" result="hardAlpha"/>
<feOffset dy="4"/>
<feGaussianBlur stdDeviation="2"/>
<feComposite in2="hardAlpha" operator="out"/>
<feColorMatrix type="matrix" values="0 0 0 0 0 0 0 0 0 0 0 0 0 0 0 0 0 0 0.25 0"/>
<feBlend mode="normal" in2="BackgroundImageFix" result="effect1_dropShadow_225_3"/>
<feBlend mode="normal" in="SourceGraphic" in2="effect1_dropShadow_225_3" result="shape"/>
</filter>
<filter id="filter1_d_225_3" x="307.34" y="198.126" width="139.182" height="87.7912" filterUnits="userSpaceOnUse" color-interpolation-filters="sRGB">
<feFlood flood-opacity="0" result="BackgroundImageFix"/>
<feColorMatrix in="SourceAlpha" type="matrix" values="0 0 0 0 0 0 0 0 0 0 0 0 0 0 0 0 0 0 127 0" result="hardAlpha"/>
<feOffset dy="4"/>
<feGaussianBlur stdDeviation="2"/>
<feComposite in2="hardAlpha" operator="out"/>
<feColorMatrix type="matrix" values="0 0 0 0 0 0 0 0 0 0 0 0 0 0 0 0 0 0 0.25 0"/>
<feBlend mode="normal" in2="BackgroundImageFix" result="effect1_dropShadow_225_3"/>
<feBlend mode="normal" in="SourceGraphic" in2="effect1_dropShadow_225_3" result="shape"/>
</filter>
<filter id="filter2_d_225_3" x="665.498" y="142.677" width="139.182" height="87.7912" filterUnits="userSpaceOnUse" color-interpolation-filters="sRGB">
<feFlood flood-opacity="0" result="BackgroundImageFix"/>
<feColorMatrix in="SourceAlpha" type="matrix" values="0 0 0 0 0 0 0 0 0 0 0 0 0 0 0 0 0 0 127 0" result="hardAlpha"/>
<feOffset dy="4"/>
<feGaussianBlur stdDeviation="2"/>
<feComposite in2="hardAlpha" operator="out"/>
<feColorMatrix type="matrix" values="0 0 0 0 0 0 0 0 0 0 0 0 0 0 0 0 0 0 0.25 0"/>
<feBlend mode="normal" in2="BackgroundImageFix" result="effect1_dropShadow_225_3"/>
<feBlend mode="normal" in="SourceGraphic" in2="effect1_dropShadow_225_3" result="shape"/>
</filter>
<filter id="filter3_d_225_3" x="51.7374" y="288.51" width="139.182" height="87.7912" filterUnits="userSpaceOnUse" color-interpolation-filters="sRGB">
<feFlood flood-opacity="0" result="BackgroundImageFix"/>
<feColorMatrix in="SourceAlpha" type="matrix" values="0 0 0 0 0 0 0 0 0 0 0 0 0 0 0 0 0 0 127 0" result="hardAlpha"/>
<feOffset dy="4"/>
<feGaussianBlur stdDeviation="2"/>
<feComposite in2="hardAlpha" operator="out"/>
<feColorMatrix type="matrix" values="0 0 0 0 0 0 0 0 0 0 0 0 0 0 0 0 0 0 0.25 0"/>
<feBlend mode="normal" in2="BackgroundImageFix" result="effect1_dropShadow_225_3"/>
<feBlend mode="normal" in="SourceGraphic" in2="effect1_dropShadow_225_3" result="shape"/>
</filter>
</defs>
</svg>
